# xmcd
#
# Track frame offsets:
#	150
#	11065
#	25107
#	46202
#	55135
#	76525
#	97977
#	112350
#	136357
#	152022
#	161972
#	175635
#	187547
#	206930
#	221867
#	233825
#	247985
#	262437
#	280305
#	290580
#
# Disc length: 4056 seconds
#
# Revision: 1
# Processed by: cddbd v1.4PL0 Copyright (c) Steve Scherf et al.
# Submitted via: audiograbber 1.80
#
DISCID=200fd614
DTITLE=Willie Nelson - La Légende Country
DYEAR=1900
DGENRE=
TTITLE0=On The Road Again
TTITLE1=Heart Of Gold
TTITLE2=Graceland
TTITLE3=If You've Got The Money I've Got The Time
TTITLE4=The City Of New Orleans
TTITLE5=(The) Most Unoriginal Sin
TTITLE6=Farther Down The Line
TTITLE7=What Was It You Wanted
TTITLE8=Still Is Still Moving To Me
TTITLE9=What A Wonderful World
TTITLE10=My Heroes Have Always Been Cowboys
TTITLE11=Railroad Lady
TTITLE12=Georgia On My Mind
TTITLE13=Living In The Promiseland
TTITLE14=Look What Thoughts Will Do
TTITLE15=Moon River
TTITLE16=Forgiving You Was Easy
TTITLE17=Help Me Make It Thru The Night
TTITLE18=Blue Eyes Crying In The Rain
TTITLE19=I Love The Life I Live
EXTD=
EXTT0=
EXTT1=
EXTT2=
EXTT3=
EXTT4=
EXTT5=
EXTT6=
EXTT7=
EXTT8=
EXTT9=
EXTT10=
EXTT11=
EXTT12=
EXTT13=
EXTT14=
EXTT15=
EXTT16=
EXTT17=
EXTT18=
EXTT19=
PLAYORDER=
